<svg width="21" height="21" viewBox="0 0 21 21" fill="none" xmlns="http://www.w3.org/2000/svg">
<path d="M10.5 0.8125C5.14973 0.8125 0.8125 5.14973 0.8125 10.5C0.8125 15.8503 5.14973 20.1875 10.5 20.1875C15.8503 20.1875 20.1875 15.8503 20.1875 10.5C20.1875 5.14973 15.8503 0.8125 10.5 0.8125ZM10.5 18.3125C6.18234 18.3125 2.6875 14.8183 2.6875 10.5C2.6875 6.18238 6.18168 2.6875 10.5 2.6875C14.8177 2.6875 18.3125 6.18168 18.3125 10.5C18.3125 14.8177 14.8183 18.3125 10.5 18.3125ZM14.6934 14.3647C14.3179 14.7441 12.9149 15.9817 10.6284 15.9817C7.40844 15.9817 5.1407 13.5823 5.1407 10.4518C5.1407 7.35988 7.4952 5.00641 10.6002 5.00641C12.7693 5.00641 14.0665 6.04625 14.4124 6.36496C14.4937 6.43971 14.5458 6.54083 14.5597 6.65038C14.5735 6.75994 14.5481 6.87086 14.488 6.96348L13.7788 8.06164C13.6288 8.29406 13.3114 8.34609 13.0953 8.17574C12.7595 7.91105 11.8525 7.29535 10.6848 7.29535C8.79797 7.29535 7.64121 8.67543 7.64121 10.4236C7.64121 12.0481 8.69152 13.6928 10.6989 13.6928C11.9746 13.6928 12.9193 12.9491 13.2663 12.6293C13.4722 12.4396 13.7974 12.4715 13.9624 12.6972L14.7384 13.7585C14.8045 13.8483 14.8364 13.9587 14.8281 14.0699C14.8199 14.1811 14.7721 14.2857 14.6934 14.3647Z" fill="black"/>
</svg>
